<?xml version="1.0" standalone="no"?>
<!DOCTYPE svg PUBLIC "-//W3C//DTD SVG 20010904//EN"
 "http://www.w3.org/TR/2001/REC-SVG-20010904/DTD/svg10.dtd">
<svg version="1.0" xmlns="http://www.w3.org/2000/svg"
 width="2017.000000pt" height="2017.000000pt" viewBox="0 0 2017.000000 2017.000000"
 preserveAspectRatio="xMidYMid meet">
<metadata>
Created by potrace 1.14, written by Peter Selinger 2001-2017
</metadata>
<g transform="translate(0.000000,2017.000000) scale(0.100000,-0.100000)"
fill="#000000" stroke="none">
<path d="M6430 19511 c-86 -28 -126 -69 -140 -142 -31 -162 -21 -398 36 -819
118 -879 329 -1633 629 -2245 194 -397 387 -676 647 -937 l136 -138 -191 -132
c-753 -520 -1422 -1106 -1957 -1713 -155 -176 -281 -337 -301 -383 -22 -50
-25 -142 -7 -193 18 -54 41 -83 253 -318 110 -122 201 -225 202 -229 1 -4
-105 -90 -235 -192 -255 -200 -280 -228 -268 -294 4 -19 16 -46 28 -61 12 -15
210 -169 441 -342 362 -272 418 -318 414 -336 -3 -12 -50 -201 -106 -420
l-101 -398 31 -62 c88 -176 266 -466 407 -662 201 -282 391 -504 628 -735 208
-202 284 -239 474 -227 172 10 307 92 340 206 8 27 -16 579 -39 916 -14 205
-33 626 -28 631 2 2 60 -28 128 -66 578 -329 1454 -692 2120 -880 l180 -51
177 50 c385 109 894 295 1343 492 184 81 640 308 788 393 63 36 117 64 119 61
5 -5 -15 -469 -29 -645 -12 -169 -39 -694 -40 -812 -2 -107 7 -132 68 -189
125 -120 362 -145 538 -56 47 23 102 72 261 231 205 205 339 358 497 571 167
224 338 491 453 709 l64 122 -45 187 c-24 103 -72 291 -105 418 -40 150 -58
235 -52 241 6 6 196 150 423 322 249 187 423 325 437 346 26 39 26 92 -1 134
-9 13 -119 105 -246 205 -127 101 -233 186 -235 189 -2 4 90 111 205 237 235
259 262 299 262 398 0 85 -22 131 -120 252 -558 692 -1328 1384 -2209 1988
l-142 97 142 142 c149 151 257 284 373 458 475 712 805 1782 934 3020 16 158
20 237 15 345 -8 184 -16 219 -57 261 -64 66 -213 83 -304 36 -37 -19 -176
-154 -271 -262 -188 -215 -2198 -2449 -2201 -2446 -4 3 30 688 43 867 l6 86
54 12 c30 7 75 27 101 44 166 111 65 302 -166 315 -209 12 -360 -125 -281
-255 11 -18 17 -33 15 -33 -3 0 -62 -9 -132 -20 -70 -12 -132 -19 -139 -16
-18 7 -373 266 -379 277 -4 5 -1 9 4 9 6 0 29 16 51 36 77 70 76 151 -5 222
-62 54 -134 76 -238 70 -214 -12 -326 -176 -198 -291 21 -19 44 -37 52 -39 8
-3 12 -7 9 -10 -9 -8 -365 -264 -377 -271 -6 -4 -77 3 -156 14 l-145 22 20 39
c61 116 -52 235 -231 246 -170 10 -301 -72 -301 -188 0 -84 92 -160 213 -176
l46 -7 5 -71 c10 -122 47 -867 44 -877 -2 -5 -503 548 -1113 1228 -611 681
-1157 1287 -1215 1346 -58 60 -123 118 -145 129 -43 23 -161 34 -205 19z
m1258 -1655 l1079 -1300 -33 -61 c-85 -154 -127 -360 -144 -712 -6 -109 -7
-212 -4 -228 7 -39 13 -34 -231 -198 -162 -110 -203 -134 -217 -126 -52 28
-227 181 -334 292 -513 530 -889 1403 -1108 2567 -61 325 -119 769 -132 1010
l-6 115 25 -30 c14 -16 511 -615 1105 -1329z m6028 1247 c-33 -523 -156 -1232
-306 -1760 -242 -856 -568 -1470 -1001 -1888 -112 -108 -261 -228 -283 -228
-12 0 -417 271 -427 286 -4 5 -9 109 -12 231 -8 339 -48 565 -130 727 l-44 87
1101 1326 c606 729 1103 1326 1105 1326 2 0 1 -48 -3 -107z m-3336 -1363 c124
-84 232 -155 240 -157 9 -2 108 23 220 56 113 32 207 57 209 55 3 -3 -7 -75
-22 -162 -70 -396 -95 -533 -100 -538 -3 -3 -22 3 -44 14 -88 44 -251 90 -428
119 -151 24 -475 25 -631 0 -146 -23 -315 -68 -399 -106 -42 -19 -71 -27 -75
-21 -8 14 -123 677 -118 688 1 5 98 -19 213 -53 l210 -62 215 145 c118 80 226
153 239 164 14 10 29 17 35 14 6 -2 112 -72 236 -156z m0 -826 c387 -71 655
-176 803 -314 40 -37 85 -91 101 -119 90 -166 173 -563 191 -911 3 -63 8 -143
11 -178 l5 -62 -63 -40 c-157 -102 -434 -227 -666 -300 l-133 -43 -109 37
c-113 39 -165 43 -183 14 -9 -13 1 -31 46 -92 l57 -75 0 -313 1 -313 62 66
c123 131 168 236 175 407 l5 112 46 -26 c80 -45 210 -95 300 -114 103 -23 282
-26 356 -6 83 22 176 75 232 133 l53 54 153 -83 152 -83 3 -289 c1 -171 -2
-303 -8 -324 -9 -34 -221 -333 -241 -340 -5 -2 -9 95 -10 230 l0 233 -142
-285 c-79 -157 -171 -332 -207 -390 -294 -483 -639 -904 -905 -1105 -33 -25
-102 -67 -154 -93 -88 -44 -99 -47 -170 -47 -58 1 -89 6 -131 25 -192 83 -414
282 -669 600 -256 319 -411 563 -621 983 l-160 317 0 -235 c0 -129 -3 -235 -7
-235 -5 1 -60 71 -123 158 l-115 157 -3 320 -3 320 152 83 152 82 36 -42 c76
-89 209 -151 353 -163 146 -13 364 39 524 125 l72 38 4 -112 c7 -169 53 -274
175 -405 l62 -66 1 313 0 313 57 75 c45 61 55 79 46 92 -17 29 -72 25 -183
-13 l-104 -35 -91 26 c-208 62 -466 172 -650 278 l-110 63 1 159 c3 341 78
759 174 971 38 84 138 184 245 247 184 107 491 197 850 250 50 7 163 -4 305
-30z m-2569 -2206 c-11 -251 -12 -262 -33 -276 -72 -51 -208 -174 -301 -273
-256 -273 -485 -616 -708 -1061 -120 -240 -165 -341 -270 -612 -49 -126 -91
-231 -93 -233 -2 -2 -154 125 -337 283 -184 158 -336 289 -339 291 -11 9 91
186 202 353 399 599 1030 1222 1753 1728 93 65 131 87 133 76 2 -8 -1 -132 -7
-276z m4815 191 c825 -583 1527 -1311 1889 -1957 l58 -103 -29 -29 c-78 -77
-645 -557 -657 -557 -9 0 -36 57 -72 151 -97 255 -184 451 -306 696 -177 353
-347 626 -548 880 -90 115 -344 370 -423 425 l-56 40 -6 75 c-3 41 -8 164 -12
273 -6 190 -6 197 13 197 11 0 78 -41 149 -91z m-4796 -769 c7 -52 21 -122 31
-156 l19 -61 -49 -104 c-27 -57 -74 -171 -104 -254 -357 -968 -541 -2344 -498
-3729 6 -209 18 -468 26 -575 8 -107 13 -196 11 -198 -2 -3 -179 197 -392 444
-213 246 -448 517 -521 601 -73 84 -133 159 -133 166 0 23 98 410 176 695 417
1525 891 2663 1343 3228 76 95 71 98 91 -57z m4730 59 c238 -302 480 -753 717
-1332 253 -621 528 -1488 738 -2327 55 -221 64 -268 54 -285 -6 -10 -241 -284
-521 -607 -338 -390 -513 -585 -522 -582 -10 4 -13 16 -10 37 2 18 8 111 14
207 86 1488 -42 2856 -369 3930 -73 241 -170 500 -236 630 l-25 50 20 68 c15
51 50 237 50 272 0 3 8 6 18 7 10 1 39 -26 72 -68z m-4458 -470 c130 -96 325
-200 456 -243 28 -10 52 -20 52 -22 0 -3 -29 -57 -65 -122 -81 -146 -157 -324
-196 -461 -17 -58 -39 -122 -48 -141 -46 -88 -109 -338 -145 -574 -39 -250
-57 -476 -64 -788 l-7 -287 -175 94 -175 94 2 213 c7 573 66 1228 164 1813 24
146 89 477 96 488 5 9 9 7 105 -64z m4230 -70 c98 -479 171 -1049 208 -1604
10 -159 32 -767 27 -770 -23 -18 -149 -85 -157 -85 -7 0 -58 -25 -115 -55
l-102 -55 -6 288 c-7 306 -16 435 -47 680 -35 267 -114 603 -160 677 -10 17
-28 68 -40 115 -38 148 -125 354 -221 522 -28 49 -50 91 -48 93 2 1 47 19 99
40 142 54 333 162 464 263 22 16 47 29 55 27 11 -1 23 -37 43 -136z m-3611
-1440 c356 -347 824 -655 1311 -863 l108 -45 114 49 c497 212 957 517 1315
869 51 51 95 91 97 89 18 -18 73 -407 76 -541 l3 -89 -235 -134 c-366 -210
-883 -461 -1252 -608 l-116 -47 -129 52 c-413 164 -911 409 -1330 654 -110 64
-153 94 -153 107 0 98 71 608 84 608 2 0 50 -46 107 -101z m-2512 -324 c11
-11 4 -51 -44 -246 -32 -129 -61 -240 -64 -247 -8 -14 -552 386 -547 403 1 6
83 74 182 152 l179 141 140 -95 c77 -52 146 -101 154 -108z m8354 45 c162
-128 168 -134 150 -150 -10 -10 -132 -104 -272 -209 -178 -134 -257 -188 -261
-179 -4 7 -33 118 -65 246 -49 199 -56 236 -44 247 8 8 77 56 154 108 116 79
143 93 155 83 8 -7 91 -73 183 -146z m-5888 -705 c188 -103 618 -315 841 -413
197 -87 606 -252 624 -252 18 0 426 164 624 252 219 96 718 343 875 433 63 36
118 65 123 65 10 0 10 -216 1 -354 l-6 -99 -136 -64 c-389 -185 -920 -402
-1277 -523 l-210 -71 -186 65 c-253 89 -491 181 -756 293 -226 95 -651 287
-663 301 -4 4 -11 108 -15 231 -6 192 -5 223 7 219 8 -3 78 -40 154 -83z m-70
-754 c454 -204 884 -374 1282 -507 l252 -84 223 74 c602 198 1207 453 1857
781 l324 164 -7 -192 c-6 -162 -9 -195 -24 -209 -34 -33 -352 -211 -567 -318
-479 -237 -1100 -475 -1637 -625 l-168 -47 -167 47 c-613 171 -1349 462 -1833
724 -167 91 -366 209 -380 226 -6 7 -13 94 -17 203 l-6 190 364 -182 c200
-100 427 -211 504 -245z"/>
<path d="M10074 14145 c-114 -24 -206 -88 -224 -156 -26 -97 39 -184 166 -221
l74 -22 0 -62 c0 -62 -1 -64 -59 -136 -85 -106 -215 -215 -321 -269 -25 -12
-83 -35 -130 -51 l-85 -28 95 5 c122 6 203 26 305 74 82 38 191 107 226 142
18 18 19 18 45 -6 76 -70 241 -157 353 -186 73 -19 261 -38 261 -27 0 4 -24
11 -52 18 -146 33 -338 161 -468 313 l-70 82 0 66 0 66 65 18 c118 32 177 94
177 186 0 59 -26 99 -91 141 -82 52 -180 71 -267 53z"/>
<path d="M10077 13087 c-61 -34 -159 -108 -152 -115 2 -2 25 3 52 12 39 14 57
14 105 5 43 -9 73 -9 116 0 48 9 66 9 105 -5 27 -9 50 -14 52 -12 10 9 -193
149 -216 148 -2 0 -30 -15 -62 -33z"/>
<path d="M8652 17653 c-18 -3 -32 -8 -30 -13 4 -13 242 -278 246 -275 2 1 0
48 -4 103 -7 100 -7 101 -37 113 -17 7 -52 28 -78 46 -27 18 -52 32 -56 31 -5
0 -23 -3 -41 -5z"/>
<path d="M11517 17620 c-32 -21 -62 -40 -66 -42 -4 -2 -11 -52 -14 -112 -4
-60 -5 -107 -3 -105 103 107 243 275 233 280 -6 3 -30 9 -52 12 -34 4 -48 0
-98 -33z"/>
<path d="M6245 16841 c-608 -310 -1211 -719 -1740 -1182 -180 -157 -559 -533
-725 -719 -758 -849 -1347 -1848 -1702 -2885 -265 -774 -395 -1421 -460 -2275
-16 -213 -16 -857 0 -1070 62 -816 192 -1481 427 -2180 48 -143 55 -174 55
-242 l0 -78 29 0 c19 0 31 -6 34 -17 25 -84 188 -454 307 -698 263 -544 637
-1131 1022 -1607 l95 -118 -29 -145 -29 -146 130 -142 c71 -78 158 -171 194
-205 l64 -64 18 114 c46 303 120 693 220 1162 161 753 338 1822 565 3416 113
786 240 1719 240 1756 0 31 10 30 42 -3 23 -25 26 -39 32 -129 13 -215 72
-419 167 -575 l21 -36 -51 -77 c-122 -180 -227 -418 -286 -648 -186 -730 -14
-1405 498 -1944 l67 -71 0 -170 c0 -93 -9 -273 -20 -399 -64 -748 -85 -1223
-85 -1954 0 -703 17 -1059 71 -1526 l17 -141 146 -90 c2077 -1276 4656 -1617
7021 -928 714 208 1400 508 2040 891 96 57 186 113 199 123 22 17 25 32 42
177 50 445 69 863 69 1489 0 723 -34 1418 -105 2165 -8 85 -15 202 -15 259 l0
104 69 73 c509 535 682 1214 496 1942 -59 230 -164 468 -286 648 l-51 77 21
36 c95 156 155 362 168 578 6 101 6 102 42 138 l37 35 13 -102 c61 -490 295
-2148 407 -2873 154 -1002 270 -1661 404 -2295 90 -424 132 -645 184 -957 l42
-255 115 119 c62 66 140 149 173 186 l58 67 -28 144 c-31 162 -36 139 51 243
70 84 185 234 299 391 496 679 904 1465 1171 2253 432 1273 561 2610 379 3929
-198 1444 -763 2811 -1638 3968 -72 96 -140 186 -151 200 -94 125 -414 481
-610 678 -571 574 -1125 999 -1835 1409 -133 77 -510 275 -523 275 -4 0 -7 -5
-7 -10 0 -6 -25 -79 -55 -162 -30 -83 -54 -152 -53 -153 2 -1 71 -36 153 -78
471 -238 1006 -587 1420 -926 323 -264 792 -717 1026 -991 484 -564 829 -1080
1143 -1709 479 -956 741 -1894 843 -3011 25 -278 25 -1032 0 -1310 -48 -528
-112 -906 -234 -1385 -246 -970 -676 -1894 -1266 -2720 -112 -156 -228 -308
-232 -303 -6 6 -146 681 -143 689 2 5 33 -11 70 -36 37 -25 71 -45 75 -45 12
0 248 372 355 561 212 369 344 648 518 1087 105 265 108 273 87 281 -12 5
-308 113 -657 240 -349 128 -638 236 -642 239 -4 4 13 72 38 152 83 271 180
698 209 918 7 51 8 53 34 48 14 -3 95 -13 179 -22 147 -16 152 -18 152 -40 0
-40 -67 -392 -109 -573 -23 -96 -40 -176 -38 -177 9 -10 970 -235 981 -231 34
13 107 279 161 582 75 426 111 799 122 1266 l6 299 -705 0 -705 0 -7 31 c-3
17 -6 64 -6 103 0 201 -58 680 -116 962 l-6 32 158 37 c88 20 167 39 176 41
10 3 19 -2 22 -13 15 -51 60 -325 86 -527 16 -126 31 -231 33 -232 4 -4 1027
112 1032 118 7 6 -53 450 -86 638 -42 244 -105 514 -185 805 -33 117 -204 638
-214 648 -4 4 -299 -98 -656 -227 -357 -129 -655 -236 -662 -238 -9 -2 -41 60
-91 177 -94 219 -242 512 -350 697 -45 76 -81 141 -81 145 0 5 66 52 147 105
140 92 147 96 160 78 37 -52 199 -344 277 -497 49 -95 91 -173 95 -172 3 0
214 105 469 232 l463 233 -97 189 c-267 525 -580 1001 -981 1492 -60 72 -110
132 -113 132 -3 1 -239 -196 -526 -437 -286 -240 -528 -443 -537 -451 -15 -12
-43 13 -249 222 -195 197 -316 308 -498 461 -13 12 81 -85 210 -214 244 -244
419 -435 598 -652 l104 -127 212 178 c116 97 306 257 421 354 116 97 213 177
217 177 9 0 170 -209 281 -366 193 -272 505 -790 486 -808 -9 -9 -311 -157
-314 -154 -1 2 -46 79 -100 172 -94 166 -295 488 -320 515 -11 11 -78 -30
-396 -239 -358 -234 -384 -254 -395 -288 -6 -20 -18 -52 -28 -70 l-18 -34 53
-81 c272 -425 486 -859 654 -1330 25 -68 31 -78 49 -74 12 2 308 108 659 236
351 127 640 231 642 231 5 0 60 -169 105 -329 81 -283 157 -630 199 -908 l18
-121 -31 -6 c-81 -14 -317 -36 -326 -31 -6 3 -10 17 -10 30 0 25 -41 268 -66
395 -16 81 -85 373 -89 378 -4 5 -990 -231 -999 -239 -9 -8 3 -88 40 -244 83
-359 129 -758 142 -1240 l7 -240 698 -3 697 -2 0 -108 c0 -141 -24 -440 -55
-681 -30 -230 -94 -596 -107 -605 -2 -2 -336 74 -345 79 -1 0 13 86 32 190 28
152 60 376 88 610 2 19 -22 23 -513 81 -283 34 -517 60 -519 58 -2 -2 -15 -86
-28 -186 -13 -101 -37 -259 -53 -351 -31 -172 -103 -487 -118 -513 -5 -9 -18
45 -36 148 -15 90 -53 298 -83 463 -60 330 -59 312 -33 650 37 474 -15 1103
-134 1620 -89 387 -197 710 -358 1067 -65 145 -88 178 -88 127 0 -57 -79 -162
-183 -244 l-38 -30 41 -95 c23 -52 46 -106 52 -120 11 -31 8 -28 -86 88 -42
50 -72 79 -79 75 -31 -18 -312 -236 -315 -243 -2 -5 25 -42 58 -82 205 -243
370 -587 370 -770 l0 -50 -53 48 c-69 63 -187 132 -305 178 -97 39 -192 70
-197 64 -2 -2 12 -68 31 -148 36 -156 40 -190 23 -238 -8 -24 -5 -53 15 -144
29 -130 42 -239 52 -423 l6 -129 37 40 c23 24 52 76 76 132 25 62 41 89 46 80
5 -7 9 -56 9 -108 0 -175 -62 -331 -180 -449 -36 -36 -80 -74 -98 -84 l-32
-18 0 44 c0 69 -27 198 -65 307 -36 102 -102 259 -115 273 -4 5 -47 -51 -95
-124 -48 -73 -129 -190 -179 -259 l-92 -126 90 -61 c228 -152 496 -388 654
-578 267 -319 396 -667 364 -979 -14 -139 -49 -263 -112 -391 -78 -161 -81
-162 -74 -20 11 206 -20 450 -83 650 -25 81 -130 312 -137 304 -3 -2 -14 -52
-26 -109 -100 -493 -355 -912 -738 -1211 l-34 -26 31 -124 c17 -68 35 -162 41
-209 61 -505 -143 -1122 -489 -1483 -99 -102 -182 -169 -262 -207 l-45 -22
-86 40 c-155 75 -230 134 -478 377 -306 300 -455 417 -742 585 -60 34 -108 65
-108 68 0 8 256 -8 370 -24 124 -17 255 -51 380 -97 49 -19 90 -33 90 -31 0 8
-116 143 -179 208 -181 188 -434 360 -618 420 -29 10 -53 21 -53 25 0 13 142
146 206 193 121 88 280 157 449 194 120 26 367 24 502 -4 123 -27 245 -69 375
-129 l98 -46 42 29 c24 16 79 65 123 110 326 327 488 886 396 1360 -15 77 -19
85 -25 59 -72 -293 -181 -495 -365 -673 -131 -127 -283 -213 -439 -248 -88
-20 -284 -15 -347 8 -36 13 -45 25 -98 124 -103 193 -165 273 -279 361 -54 41
-58 47 -58 86 0 171 91 488 187 652 l35 60 -23 15 c-59 37 -141 127 -169 184
-39 80 -50 146 -43 252 7 104 8 104 -104 -7 -161 -159 -284 -393 -328 -623
-17 -86 -20 -269 -6 -330 9 -38 9 -38 -17 -33 -105 21 -257 29 -446 24 -216
-5 -311 -17 -454 -59 -66 -19 -80 -20 -156 -9 -201 28 -358 98 -498 223 l-37
33 -11 310 c-10 277 -35 684 -42 690 -2 1 -28 5 -60 7 l-56 4 -6 -60 c-17
-172 -45 -737 -46 -907 0 -46 -1 -47 -77 -108 -189 -151 -414 -253 -653 -295
l-95 -17 -90 30 c-49 16 -128 35 -174 42 -105 15 -337 7 -479 -16 -57 -9 -105
-15 -107 -13 -1 2 6 44 16 93 71 345 -52 761 -301 1017 l-71 73 6 -77 c15
-177 -57 -323 -209 -424 l-53 -35 49 -93 c85 -165 152 -407 165 -591 l5 -80
-65 -33 c-208 -106 -414 -250 -563 -394 l-93 -90 -103 26 c-385 97 -649 397
-741 845 -9 40 -17 75 -20 77 -2 3 -14 -42 -26 -98 -95 -461 5 -891 266 -1140
73 -69 190 -147 269 -178 33 -13 60 -24 62 -26 2 -1 -6 -29 -18 -63 -11 -33
-20 -81 -20 -106 l0 -46 72 108 c89 134 286 334 441 450 275 205 617 370 875
423 289 58 615 45 1052 -45 243 -50 316 -58 515 -58 296 0 506 36 1085 185
336 86 360 91 460 91 134 0 216 -19 349 -84 87 -42 117 -64 186 -132 71 -71
135 -163 135 -195 0 -5 -55 -12 -122 -16 -364 -19 -696 -118 -1117 -331 -382
-194 -836 -496 -1311 -874 -302 -240 -334 -265 -466 -351 -336 -219 -669 -324
-1051 -332 -72 -2 -134 0 -138 3 -8 9 57 184 101 272 255 506 733 854 1367
992 60 13 111 25 113 28 6 6 -166 35 -276 47 -184 19 -364 9 -562 -31 -280
-56 -577 -203 -815 -402 -285 -239 -526 -597 -629 -932 -15 -49 -29 -92 -31
-94 -8 -10 -214 104 -302 167 -108 76 -255 219 -321 310 -112 154 -193 341
-220 507 -27 160 -10 371 42 553 l21 73 -23 16 c-63 44 -205 171 -276 246
-263 277 -405 586 -454 982 -6 49 -13 91 -14 93 -2 2 -26 -43 -54 -100 -118
-242 -172 -520 -159 -818 7 -158 6 -158 -73 5 -63 128 -98 252 -112 391 -32
312 97 660 364 979 158 190 409 412 650 576 57 39 102 74 101 80 -2 5 -37 55
-79 111 -42 57 -120 168 -172 248 -52 80 -99 149 -103 154 -10 12 -84 -144
-129 -269 -44 -127 -70 -240 -70 -312 0 -35 -3 -63 -6 -63 -16 0 -98 66 -154
127 -72 75 -127 172 -159 277 -25 82 -36 187 -24 239 l8 39 69 -116 c38 -64
77 -123 87 -132 18 -17 19 -14 19 74 0 190 59 509 101 544 18 16 20 22 10 49
-17 49 -14 79 25 240 20 83 34 152 32 155 -6 5 -145 -40 -238 -78 -104 -43
-223 -114 -287 -172 l-53 -48 0 50 c0 185 163 523 374 776 37 44 65 83 64 87
-2 4 -61 52 -133 105 -71 54 -144 108 -162 121 l-32 24 -83 -100 c-45 -55 -84
-99 -85 -97 -2 2 20 59 48 126 l52 123 -29 21 c-101 73 -156 152 -178 257
l-12 61 -66 -144 c-182 -394 -290 -710 -384 -1113 -123 -532 -174 -1171 -135
-1700 l12 -160 -75 -410 c-41 -225 -80 -447 -87 -493 -7 -45 -16 -79 -20 -75
-19 22 -106 440 -138 663 -41 296 -52 434 -60 780 l-6 275 -704 3 -704 2 7
133 c11 201 34 463 56 641 26 203 92 582 106 607 6 10 349 -76 347 -87 -52
-281 -130 -803 -120 -809 3 -2 1032 -123 1034 -121 1 1 13 91 28 201 61 471
139 801 300 1276 l73 216 -626 228 c-345 125 -641 234 -659 241 l-32 12 33 84
c60 152 168 390 261 573 136 268 326 595 346 595 13 0 288 -184 289 -193 0 -4
-44 -83 -98 -175 -116 -198 -197 -348 -251 -465 l-40 -86 466 -236 c256 -130
467 -235 468 -233 2 2 39 76 83 164 97 193 204 382 313 549 l79 122 -20 48
c-50 115 -46 262 9 381 16 35 83 128 155 218 69 86 126 158 126 160 0 1 -191
164 -425 361 -234 197 -425 362 -425 366 0 13 251 279 396 419 197 191 588
530 612 530 7 0 212 -274 212 -283 0 -3 -30 -29 -67 -59 -176 -139 -543 -470
-543 -489 0 -9 496 -541 510 -547 4 -2 44 37 89 85 77 82 286 285 466 452 44
41 71 68 60 59 -68 -51 -280 -224 -334 -271 l-65 -56 -96 102 c-54 56 -109
116 -123 133 l-26 31 107 92 c59 51 180 149 270 219 l162 126 0 76 0 76 -271
364 c-149 201 -275 367 -280 368 -5 2 -78 -48 -162 -111 -332 -251 -707 -583
-959 -849 -161 -170 -449 -499 -446 -509 2 -4 239 -205 528 -448 289 -243 529
-448 534 -455 7 -10 -2 -28 -31 -62 -118 -143 -379 -529 -495 -733 -39 -69
-77 -136 -85 -149 l-14 -23 -159 82 -158 83 20 40 c53 104 171 300 333 550
l54 84 -433 286 c-238 157 -435 286 -438 286 -10 0 -261 -397 -362 -573 -155
-271 -319 -604 -448 -917 -71 -170 -168 -424 -168 -438 0 -5 296 -117 658
-249 563 -206 657 -243 656 -259 -1 -10 -27 -104 -57 -209 -31 -104 -72 -257
-91 -340 -37 -158 -96 -472 -96 -511 0 -12 -3 -25 -8 -28 -10 -6 -345 34 -354
42 -9 10 54 361 106 582 23 102 42 186 42 187 -1 1 -222 54 -491 118 -270 64
-497 118 -506 121 -14 4 -23 -23 -57 -163 -119 -494 -192 -1021 -207 -1506 -3
-89 -7 -231 -10 -314 l-5 -153 707 -2 708 -3 3 -55 c14 -314 58 -714 106 -960
13 -69 23 -126 22 -127 -4 -4 -349 -83 -351 -81 -3 4 -40 206 -59 323 -8 50
-25 171 -37 270 -12 99 -22 181 -23 182 -3 4 -1028 -116 -1033 -121 -9 -9 46
-417 88 -653 61 -345 143 -678 251 -1018 68 -214 145 -429 156 -433 5 -1 283
97 618 219 335 122 626 227 648 235 37 14 38 13 33 -9 -3 -12 -22 -150 -42
-307 -19 -157 -37 -289 -39 -295 -2 -5 -16 16 -32 48 -15 31 -32 57 -36 57 -7
0 -913 -456 -926 -466 -2 -1 38 -83 87 -182 150 -300 371 -671 551 -927 l78
-110 -49 -229 c-27 -126 -51 -231 -53 -233 -5 -5 -203 262 -308 417 -709 1039
-1168 2225 -1342 3465 -59 421 -80 727 -80 1155 1 1044 189 2036 569 3000 526
1335 1394 2506 2532 3413 411 328 892 638 1338 864 105 52 191 96 192 97 3 2
-112 315 -118 320 -2 3 -99 -44 -214 -103z m-3165 -8589 c0 -76 143 -779 163
-798 2 -2 231 49 508 114 277 65 505 118 507 116 6 -4 -60 -408 -67 -416 -7
-8 -1127 -418 -1141 -418 -5 0 -24 48 -44 108 -102 311 -198 709 -255 1057
-34 209 -34 205 -19 206 7 0 76 9 153 19 165 21 195 23 195 12z m13527 -1557
c263 -96 483 -177 490 -180 16 -5 -12 -81 -114 -310 -129 -290 -298 -612 -447
-852 l-57 -93 -73 50 -74 49 -22 123 c-12 68 -23 128 -25 134 -2 7 30 72 72
145 41 74 108 199 148 279 l73 146 -202 103 c-110 57 -202 105 -203 105 -1 1
-13 91 -28 201 -14 110 -28 217 -32 238 -3 22 -2 37 5 37 5 0 225 -79 489
-175z m-12699 -911 l63 -114 -16 -88 c-42 -230 -76 -408 -81 -421 -2 -8 -33
30 -71 90 -66 102 -283 477 -283 489 0 6 301 159 315 159 6 0 38 -51 73 -115z"/>
<path d="M6650 16259 c-30 -17 -109 -58 -175 -91 -166 -85 -395 -218 -395
-230 0 -8 401 -707 617 -1075 l54 -92 134 106 c74 58 135 106 135 108 0 2
-369 642 -476 826 -1 3 70 43 159 89 89 46 164 85 166 87 8 6 -143 301 -154
302 -5 0 -35 -13 -65 -30z"/>
<path d="M13592 15543 c-306 -527 -322 -556 -303 -569 10 -8 72 -55 136 -105
64 -49 118 -89 120 -87 2 2 112 190 244 418 133 228 245 418 250 423 11 11
187 -98 391 -241 184 -130 450 -337 603 -472 l128 -111 -123 -129 c-67 -72
-123 -130 -125 -130 -2 0 -65 53 -141 118 -75 65 -200 167 -277 227 -77 60
-159 124 -182 143 l-42 33 -197 -263 c-108 -145 -200 -268 -205 -273 -4 -6 43
-55 118 -120 69 -61 128 -111 131 -112 4 -1 52 59 107 133 55 75 103 138 108
140 14 9 247 -188 463 -391 l131 -124 354 374 c195 206 355 380 356 387 2 15
-222 226 -406 382 -264 226 -581 461 -881 653 -152 98 -416 253 -428 253 -4 0
-152 -251 -330 -557z"/>
<path d="M7349 15307 c18 -48 32 -68 42 -62 14 9 11 17 -22 55 -29 34 -30 34
-20 7z"/>
<path d="M5254 12228 c-106 -176 -101 -166 -78 -147 10 9 66 53 124 99 151
119 141 103 95 150 -21 22 -42 40 -46 40 -4 0 -47 -64 -95 -142z"/>
<path d="M14900 12325 c-30 -30 -32 -37 -20 -49 32 -29 210 -167 210 -161 0 8
-130 218 -144 233 -9 10 -19 5 -46 -23z"/>
</g>
</svg>
