<?xml version="1.0" standalone="no"?>
<!DOCTYPE svg PUBLIC "-//W3C//DTD SVG 20010904//EN"
 "http://www.w3.org/TR/2001/REC-SVG-20010904/DTD/svg10.dtd">
<svg version="1.0" xmlns="http://www.w3.org/2000/svg"
 width="2017.000000pt" height="2017.000000pt" viewBox="0 0 2017.000000 2017.000000"
 preserveAspectRatio="xMidYMid meet">
<metadata>
Created by potrace 1.14, written by Peter Selinger 2001-2017
</metadata>
<g transform="translate(0.000000,2017.000000) scale(0.100000,-0.100000)"
fill="#000000" stroke="none">
<path d="M6410 19505 c-50 -16 -107 -65 -115 -99 -11 -45 -25 -205 -25 -279 0
-103 34 -433 71 -692 154 -1068 464 -1981 889 -2616 118 -175 229 -310 376
-457 l132 -133 -76 -51 c-474 -318 -943 -686 -1362 -1067 -384 -350 -949 -968
-1011 -1105 -29 -63 -26 -169 6 -232 15 -29 111 -143 235 -279 l209 -230 -32
-28 c-18 -15 -126 -103 -242 -195 -182 -145 -212 -172 -224 -208 -16 -46 -11
-79 20 -117 11 -15 204 -165 427 -333 224 -169 413 -312 420 -319 11 -10 2
-53 -47 -241 -34 -126 -81 -314 -106 -418 l-45 -190 66 -124 c125 -238 335
-561 519 -797 147 -189 277 -334 462 -515 232 -228 292 -258 488 -248 181 10
311 88 344 204 9 31 -10 478 -43 1024 -8 135 -18 310 -21 389 l-7 144 58 -33
c688 -391 1582 -760 2299 -951 l81 -21 224 65 c718 209 1491 536 2144 907 l59
33 -7 -159 c-4 -87 -14 -267 -22 -399 -20 -335 -43 -787 -46 -904 -1 -90 0
-102 25 -144 54 -91 171 -147 327 -155 108 -5 197 12 266 53 23 14 92 71 153
127 378 350 762 856 1046 1377 l67 124 -57 236 c-32 130 -80 318 -106 418 -27
101 -49 184 -49 186 0 2 191 147 424 323 439 330 466 354 466 421 0 17 -10 45
-22 63 -13 19 -128 116 -255 217 l-233 184 210 232 c237 261 264 302 264 401
0 40 -8 77 -22 109 -66 149 -661 795 -1067 1158 -419 375 -855 715 -1291 1007
l-91 61 146 148 c666 673 1116 1849 1292 3371 28 244 34 425 20 552 -15 125
-30 156 -96 190 -67 34 -199 36 -260 3 -65 -34 -203 -185 -1365 -1480 -607
-678 -1106 -1231 -1107 -1229 -2 2 8 214 22 472 14 258 25 472 25 475 0 4 17
10 38 14 198 36 270 204 130 305 -135 98 -373 72 -455 -49 -29 -43 -30 -104
-3 -148 11 -18 17 -33 14 -33 -3 0 -64 -9 -135 -20 -72 -11 -136 -17 -143 -13
-35 21 -366 267 -366 272 0 3 16 17 35 30 45 30 80 101 71 144 -11 56 -51 103
-113 134 -53 25 -68 28 -163 28 -85 0 -113 -4 -150 -21 -137 -63 -165 -184
-63 -274 40 -35 44 -43 32 -54 -15 -13 -335 -247 -356 -259 -10 -6 -282 30
-291 38 -2 2 4 17 12 34 64 124 -67 251 -259 251 -190 0 -324 -127 -261 -248
30 -58 114 -109 196 -119 l48 -6 6 -81 c11 -145 47 -868 44 -871 -2 -2 -498
549 -1103 1223 -1155 1288 -1305 1451 -1370 1484 -51 27 -163 33 -225 13z
m1723 -2185 l635 -765 -20 -33 c-101 -166 -151 -415 -165 -825 l-6 -189 -98
-65 -99 -66 -192 185 c-223 214 -317 302 -560 526 -98 89 -204 195 -237 236
-212 259 -451 753 -555 1146 -91 345 -170 760 -221 1150 -25 199 -55 498 -55
559 0 37 -145 208 1573 -1859z m5572 1672 c-106 -1202 -419 -2284 -867 -3001
-165 -265 -421 -554 -622 -704 l-89 -66 -211 143 -211 144 -2 63 c-18 521 -68
796 -171 954 l-20 30 1102 1325 c605 729 1102 1320 1104 1313 2 -8 -4 -98 -13
-201z m-3332 -1249 c128 -86 241 -158 252 -160 11 -2 110 23 220 56 152 45
201 56 203 45 2 -7 -19 -138 -47 -291 -28 -153 -53 -301 -57 -329 -10 -77 -12
-78 -87 -44 -90 41 -208 74 -363 101 -109 20 -163 23 -354 23 -191 0 -245 -3
-354 -23 -157 -28 -279 -62 -365 -102 -35 -16 -66 -27 -69 -24 -7 6 -123 677
-120 691 2 7 55 -5 143 -31 77 -24 173 -52 212 -63 l72 -20 238 163 c131 90
240 164 241 164 2 1 108 -70 235 -156z m-33 -824 c317 -50 604 -146 770 -259
80 -55 157 -141 190 -213 93 -207 163 -584 177 -963 l6 -161 -87 -52 c-194
-114 -435 -220 -651 -286 l-120 -36 -123 42 c-117 39 -123 40 -147 25 -14 -9
-25 -22 -25 -29 0 -6 25 -46 55 -87 l55 -75 0 -310 1 -310 62 66 c122 131 168
237 175 404 l4 111 97 -48 c53 -26 135 -58 184 -72 282 -82 502 -44 654 111
l52 53 151 -82 151 -82 -3 -320 -3 -321 -115 -157 c-63 -87 -118 -158 -122
-158 -5 0 -8 105 -8 233 l-1 232 -157 -310 c-86 -170 -194 -368 -239 -440
-347 -554 -742 -994 -1007 -1121 -96 -46 -161 -58 -232 -44 -256 53 -653 447
-1039 1030 -133 201 -204 328 -361 645 l-129 260 -5 -239 -5 -240 -107 146
c-59 80 -112 158 -118 172 -6 17 -10 147 -10 329 l1 302 149 80 150 81 62 -61
c132 -127 305 -170 529 -130 105 18 201 50 306 104 46 22 85 41 88 41 3 0 5
-42 5 -93 0 -157 52 -282 170 -408 l69 -74 1 310 0 311 56 77 c58 81 62 99 21
118 -19 9 -46 3 -144 -29 l-121 -39 -113 34 c-213 64 -455 171 -651 286 l-88
51 0 72 c0 170 35 492 75 692 45 221 102 374 173 461 134 166 500 311 957 381
128 20 141 19 335 -11z m-2520 -1956 c0 -16 -5 -138 -12 -274 l-12 -245 -50
-34 c-68 -46 -346 -324 -429 -430 -330 -417 -599 -913 -843 -1553 -62 -162
-69 -176 -85 -165 -51 36 -658 564 -658 573 -1 16 104 199 187 324 351 532
899 1098 1514 1563 158 119 369 268 380 268 4 0 8 -12 8 -27z m4733 -15 c816
-551 1587 -1341 1963 -2009 l56 -101 -28 -28 c-75 -73 -646 -557 -657 -557 -8
0 -36 62 -66 141 -256 677 -572 1248 -917 1656 -89 106 -303 313 -371 360
l-51 35 -6 160 c-3 88 -9 211 -12 273 -8 133 -6 134 89 70z m-4728 -800 c9
-64 25 -143 34 -175 l18 -58 -35 -75 c-282 -617 -495 -1566 -577 -2565 -53
-663 -58 -1415 -11 -2040 8 -99 12 -181 11 -183 -4 -5 -1035 1187 -1041 1203
-10 25 168 709 301 1157 373 1256 776 2192 1164 2707 47 63 92 123 100 133 8
10 15 17 16 16 2 -2 11 -56 20 -120z m4731 44 c478 -580 1030 -1963 1454
-3644 71 -284 72 -287 54 -311 -100 -125 -1022 -1177 -1033 -1177 -15 0 -16
-21 11 410 16 258 16 1200 0 1445 -41 624 -93 1051 -188 1537 -101 518 -259
1045 -405 1356 l-48 104 23 81 c13 45 29 123 36 173 9 68 16 91 27 91 9 0 39
-29 69 -65z m-4392 -517 c111 -75 280 -162 379 -195 37 -12 67 -25 67 -28 0
-2 -15 -30 -34 -61 -96 -159 -195 -391 -238 -554 -12 -45 -29 -93 -39 -107
-52 -77 -139 -468 -173 -785 -31 -278 -34 -334 -35 -590 -1 -142 -4 -261 -7
-264 -2 -3 -41 15 -87 39 -112 60 -229 123 -250 135 -16 10 -16 32 -7 315 20
618 69 1148 155 1671 32 193 90 498 100 528 4 10 14 7 39 -13 19 -14 77 -55
130 -91z m4141 96 c12 -42 68 -338 99 -531 89 -542 141 -1113 153 -1676 l6
-291 -66 -37 c-36 -20 -74 -39 -85 -41 -10 -2 -63 -28 -118 -58 -57 -32 -100
-50 -101 -44 -1 7 -4 145 -7 307 -6 372 -32 637 -92 935 -31 155 -90 362 -113
394 -10 14 -27 63 -39 108 -43 163 -142 395 -238 554 -19 31 -34 59 -34 62 0
2 24 12 53 21 92 30 292 133 416 216 66 44 122 84 125 89 9 14 35 8 41 -8z
m-3662 -1485 c24 -36 278 -264 402 -362 284 -222 646 -433 1000 -584 l95 -40
98 41 c488 207 958 515 1316 863 60 58 110 105 112 104 13 -14 64 -361 79
-543 l7 -80 -139 -82 c-389 -229 -946 -503 -1355 -667 l-116 -46 -169 69
c-259 106 -464 201 -753 347 -207 104 -555 295 -679 373 -11 7 -11 29 -2 132
22 234 65 499 81 499 4 0 15 -11 23 -24z m5870 -316 c37 -29 67 -56 67 -59 0
-3 -105 -62 -233 -131 l-232 -126 -27 106 c-15 58 -26 109 -25 114 2 5 70 55
152 111 l150 102 40 -32 c22 -17 70 -55 108 -85z m-8454 19 c75 -51 142 -97
149 -104 10 -9 1 -58 -49 -258 -43 -175 -65 -245 -73 -239 -6 5 -130 98 -275
206 -153 115 -259 202 -254 207 26 26 349 279 357 279 4 0 70 -41 145 -91z
m2658 -788 c198 -107 615 -310 818 -399 198 -86 586 -242 604 -242 19 0 415
159 614 246 232 102 635 300 841 413 92 51 170 90 173 87 3 -3 2 -105 -2 -227
l-7 -221 -117 -55 c-454 -214 -943 -414 -1329 -544 l-173 -58 -158 54 c-393
133 -888 336 -1362 558 l-96 45 -8 205 c-4 112 -4 214 0 226 6 20 9 21 28 8
12 -8 90 -51 174 -96z m-387 -602 c571 -272 1095 -485 1622 -658 l188 -62 157
52 c657 214 1462 556 2098 891 l140 73 3 -50 c2 -27 1 -83 -3 -124 l-7 -73
-131 -63 c-268 -128 -728 -314 -1332 -540 -524 -196 -945 -345 -975 -345 -39
0 -284 71 -451 131 -443 158 -1106 453 -1694 752 l-200 102 -3 107 -3 106 173
-91 c95 -50 283 -143 418 -208z"/>
<path d="M10068 14144 c-79 -19 -149 -56 -186 -98 -96 -110 -9 -258 171 -291
l37 -7 0 -63 c0 -59 -3 -67 -42 -117 -62 -78 -148 -161 -230 -219 -95 -66
-135 -87 -238 -120 l-85 -28 68 0 c172 -2 416 90 540 204 l37 34 32 -30 c129
-119 368 -210 546 -208 l67 0 -96 32 c-165 56 -320 166 -438 312 -60 75 -61
77 -61 139 l0 64 36 7 c60 11 138 50 166 83 104 124 23 258 -184 307 -74 17
-67 17 -140 -1z"/>
<path d="M10081 13090 c-62 -34 -164 -111 -157 -118 3 -2 26 3 52 12 40 14 56
14 106 4 45 -9 71 -9 116 0 50 10 66 10 106 -4 26 -9 49 -14 51 -12 10 10
-190 148 -215 148 -3 0 -29 -14 -59 -30z"/>
<path d="M8643 17651 l-33 -6 127 -142 c70 -78 129 -140 131 -138 2 2 1 48 -3
103 -7 99 -8 101 -36 112 -16 7 -50 28 -76 46 -49 35 -54 36 -110 25z"/>
<path d="M11518 17621 c-31 -21 -61 -41 -66 -43 -5 -1 -12 -52 -16 -113 -7
-109 -7 -110 12 -90 11 11 68 74 126 139 114 127 115 129 41 140 -35 5 -47 1
-97 -33z"/>
<path d="M6225 16831 c-597 -306 -1122 -660 -1660 -1119 -220 -188 -709 -678
-901 -902 -595 -696 -1074 -1474 -1410 -2290 -35 -85 -71 -168 -79 -185 -8
-16 -53 -142 -99 -280 -260 -764 -390 -1398 -458 -2240 -17 -210 -17 -927 0
-1140 65 -801 212 -1538 432 -2165 44 -124 50 -151 50 -221 0 -77 1 -79 24
-79 29 0 37 -15 106 -185 294 -732 768 -1534 1273 -2154 43 -52 77 -102 77
-111 0 -10 -11 -72 -25 -140 -14 -68 -25 -128 -25 -134 1 -18 377 -422 386
-413 2 1 19 101 39 222 50 310 105 596 190 997 98 457 149 731 250 1333 158
942 355 2278 520 3525 25 190 48 356 51 370 l6 25 29 -33 c25 -28 29 -40 29
-95 0 -189 80 -472 175 -617 16 -24 15 -27 -40 -110 -82 -123 -188 -345 -240
-502 -249 -757 -91 -1503 439 -2065 l86 -91 0 -165 c0 -91 -4 -209 -10 -263
-62 -620 -100 -1428 -100 -2109 0 -638 32 -1242 86 -1612 l6 -42 182 -110
c1058 -637 2191 -1031 3408 -1186 1563 -198 3141 22 4579 638 405 174 944 458
1224 646 46 31 42 10 74 357 89 957 72 2144 -49 3449 -11 116 -20 252 -20 304
l0 94 74 77 c539 565 702 1314 451 2078 -52 157 -158 379 -240 502 -55 83 -56
86 -40 110 95 145 175 428 175 618 0 57 3 65 34 100 19 20 36 35 38 32 3 -3
30 -201 62 -440 31 -239 108 -795 171 -1235 240 -1688 411 -2724 584 -3542 94
-444 144 -700 193 -1000 23 -139 44 -253 47 -252 8 1 293 305 322 342 l22 29
-28 144 -27 144 26 33 c461 570 764 1031 1055 1607 287 566 474 1053 635 1653
355 1321 386 2725 89 4057 -159 717 -373 1317 -704 1980 -279 557 -530 950
-961 1506 -111 142 -370 434 -552 621 -594 611 -1252 1113 -2002 1529 -147 81
-415 217 -419 212 -3 -3 -103 -279 -111 -308 -4 -11 18 -26 73 -53 475 -234
1037 -595 1478 -951 326 -263 789 -708 1037 -996 558 -650 959 -1276 1303
-2036 490 -1081 737 -2296 711 -3504 -14 -719 -105 -1350 -292 -2031 -239
-875 -652 -1752 -1172 -2494 -138 -196 -285 -390 -289 -379 -12 44 -144 687
-141 689 2 3 34 -16 71 -40 36 -25 70 -45 75 -45 12 0 254 381 363 570 104
182 275 520 359 710 91 208 258 634 251 641 -3 4 -298 113 -656 244 -357 130
-653 240 -658 244 -4 4 0 27 8 52 70 196 176 625 222 898 15 90 31 164 36 164
4 0 84 -8 177 -18 144 -16 170 -21 170 -35 0 -36 -70 -404 -110 -574 -22 -98
-39 -180 -36 -183 4 -4 935 -230 970 -235 16 -3 24 11 48 77 90 245 182 770
223 1270 16 188 36 768 27 793 -3 9 -154 12 -706 12 l-702 0 -17 243 c-22 307
-74 708 -113 864 -4 12 -2 23 2 23 5 0 83 18 174 39 91 22 167 38 168 36 10
-9 73 -394 93 -563 13 -106 26 -197 29 -203 7 -10 1018 98 1033 111 8 7 -30
329 -64 535 -71 430 -176 848 -326 1295 -47 140 -89 259 -93 263 -4 5 -302
-98 -661 -228 -360 -130 -657 -237 -662 -238 -4 -1 -40 75 -81 168 -128 297
-262 562 -398 783 -21 34 -38 66 -38 70 0 4 67 50 149 103 l148 97 89 -152
c48 -83 133 -238 187 -343 54 -106 100 -193 103 -193 5 0 927 460 933 466 6 5
-201 399 -298 566 -166 288 -373 597 -585 873 -101 133 -299 374 -307 374 -3
1 -167 -135 -365 -301 -198 -167 -440 -370 -537 -451 l-176 -149 -243 245
c-200 201 -335 324 -541 496 -10 8 117 -120 281 -285 288 -288 436 -450 604
-657 l79 -97 33 27 c19 16 208 174 420 353 213 179 391 326 395 328 19 6 297
-373 463 -633 105 -164 308 -513 308 -530 0 -9 -309 -170 -315 -163 -1 2 -47
83 -103 180 -153 268 -314 518 -332 514 -24 -5 -770 -498 -770 -508 0 -5 -11
-38 -25 -73 l-26 -63 74 -114 c225 -347 452 -804 607 -1225 29 -79 58 -143 65
-143 6 0 304 106 660 235 356 129 649 235 651 235 13 0 146 -472 203 -720 40
-172 111 -567 111 -614 0 -28 9 -26 -214 -51 -72 -8 -131 -13 -133 -12 -1 2
-16 82 -33 178 -48 281 -125 629 -138 629 -4 0 -229 -53 -501 -117 -327 -78
-495 -122 -499 -131 -3 -8 16 -114 41 -236 95 -453 129 -746 143 -1238 l6
-248 699 0 699 0 0 -87 c0 -129 -27 -459 -56 -688 -28 -228 -92 -595 -105
-609 -8 -9 -326 59 -340 73 -4 3 9 87 27 186 29 149 97 626 91 631 -3 3 -966
114 -1006 117 l-35 2 -27 -205 c-39 -298 -103 -630 -156 -810 l-16 -55 -29
165 c-16 91 -54 305 -84 475 l-57 310 19 230 c61 756 -36 1526 -285 2275 -95
283 -272 697 -284 660 -38 -121 -71 -169 -162 -241 -37 -28 -64 -57 -61 -63 2
-6 25 -59 50 -118 25 -60 44 -108 42 -108 -1 0 -30 35 -64 78 -102 130 -73
131 -266 -13 l-167 -126 47 -52 c110 -123 245 -335 314 -494 47 -109 67 -184
76 -283 l7 -75 -56 52 c-71 64 -150 113 -267 163 -95 42 -228 85 -236 78 -2
-3 12 -70 31 -150 38 -157 41 -196 21 -243 -10 -24 -9 -39 5 -91 33 -119 50
-250 56 -421 3 -95 9 -173 14 -173 23 0 89 98 119 177 29 76 35 85 41 63 12
-43 9 -172 -5 -241 -30 -141 -118 -281 -227 -363 l-64 -48 -6 78 c-8 103 -40
221 -96 364 -57 144 -82 195 -93 184 -4 -5 -55 -80 -114 -167 -88 -131 -144
-209 -238 -333 -5 -7 23 -31 80 -69 448 -298 789 -672 936 -1027 96 -232 115
-480 56 -710 -23 -90 -83 -232 -126 -301 l-30 -48 4 140 c10 306 -42 566 -166
825 -42 88 -58 113 -63 100 -4 -11 -16 -69 -28 -130 -45 -243 -153 -503 -299
-719 -121 -180 -244 -314 -423 -458 l-47 -38 24 -75 c142 -460 33 -1074 -272
-1532 -94 -141 -231 -286 -338 -357 -126 -84 -121 -83 -234 -26 -154 78 -232
140 -477 380 -302 296 -434 402 -715 566 l-115 67 165 -5 c225 -7 405 -42 580
-112 46 -19 86 -32 89 -30 7 8 -139 172 -237 266 -186 179 -379 305 -566 369
l-50 16 45 49 c57 63 172 154 257 204 260 154 595 195 922 115 113 -28 272
-88 358 -134 l53 -29 77 63 c242 196 421 523 488 891 25 141 26 405 0 538 -10
54 -21 96 -24 93 -3 -3 -15 -45 -27 -93 -91 -358 -336 -668 -630 -798 -140
-62 -323 -82 -464 -50 -76 18 -67 7 -181 217 -57 105 -155 221 -241 284 l-51
37 6 76 c17 192 83 422 167 581 l50 95 -28 19 c-51 35 -141 133 -163 176 -34
66 -50 161 -43 256 4 50 2 84 -3 84 -18 0 -157 -144 -213 -220 -168 -227 -258
-524 -231 -764 6 -49 9 -90 8 -91 -2 -1 -43 4 -93 12 -56 9 -167 15 -295 15
-220 1 -357 -14 -492 -54 -187 -55 -454 16 -650 173 l-78 62 0 96 c0 181 -32
791 -46 878 -4 30 -6 31 -62 35 -31 2 -59 3 -61 1 -11 -7 -51 -718 -51 -920
l0 -92 -106 -79 c-177 -134 -380 -226 -585 -268 -113 -23 -152 -21 -234 9 -38
14 -99 31 -135 36 -106 17 -330 13 -480 -9 -74 -11 -136 -20 -137 -20 0 0 6
24 14 53 9 31 17 116 20 212 4 138 2 174 -17 264 -48 236 -162 452 -315 601
l-57 55 6 -75 c12 -137 -26 -251 -116 -346 -29 -31 -73 -68 -98 -82 -25 -14
-46 -26 -48 -27 -1 -1 15 -36 37 -76 80 -149 136 -327 166 -527 24 -159 23
-164 -32 -191 -195 -93 -414 -245 -570 -394 l-99 -95 -65 13 c-404 85 -683
388 -779 847 -10 49 -21 92 -23 94 -9 9 -48 -204 -59 -321 -19 -207 15 -446
91 -623 90 -212 268 -394 466 -477 39 -16 72 -30 73 -31 2 -2 -5 -27 -17 -57
-20 -54 -31 -141 -19 -153 4 -3 16 12 27 33 32 64 136 199 224 290 160 166
408 346 645 466 322 164 532 217 865 217 241 0 426 -23 758 -93 250 -53 504
-59 793 -16 197 28 329 57 736 161 334 85 361 91 455 90 257 -1 509 -136 629
-336 20 -33 36 -66 36 -73 0 -10 -22 -13 -84 -13 -164 0 -399 -41 -616 -107
-487 -148 -1136 -532 -1820 -1077 -453 -362 -614 -467 -865 -569 -214 -87
-399 -125 -652 -134 l-173 -6 29 84 c199 589 754 1043 1440 1180 58 12 113 24
121 27 22 7 -138 39 -270 53 -140 14 -379 7 -510 -16 -595 -105 -1127 -522
-1406 -1100 -58 -120 -124 -297 -124 -331 0 -18 2 -18 -62 10 -140 62 -317
185 -436 304 -155 155 -277 362 -328 557 -51 193 -43 452 20 651 l23 71 -104
83 c-288 231 -472 492 -577 818 -34 107 -75 306 -77 375 0 18 -4 41 -8 52 -7
16 -18 0 -59 -85 -120 -247 -168 -483 -161 -795 l4 -153 -29 46 c-43 68 -103
211 -126 300 -112 433 46 873 469 1305 156 160 326 300 529 436 50 34 92 64
92 67 0 3 -15 24 -34 47 -54 67 -183 252 -262 374 l-71 112 -51 -107 c-91
-194 -162 -451 -146 -525 l6 -29 -34 18 c-48 25 -178 160 -216 226 -44 75 -80
181 -91 266 -9 69 -4 162 8 162 3 0 21 -28 40 -63 18 -34 54 -93 80 -131 l46
-70 7 137 c12 225 60 469 99 508 17 17 17 24 7 68 -10 44 -7 65 26 211 21 89
36 164 33 166 -7 7 -205 -61 -288 -99 -98 -45 -178 -96 -240 -154 l-49 -46 0
34 c0 54 19 157 41 223 53 161 195 404 334 570 36 44 64 83 63 87 -2 4 -61 52
-133 105 -71 54 -144 108 -162 121 l-31 24 -59 -68 c-32 -38 -70 -84 -85 -103
l-28 -35 14 40 c7 22 31 80 52 129 l39 89 -35 26 c-101 74 -152 150 -173 253
l-13 61 -53 -114 c-30 -63 -74 -161 -98 -219 -24 -57 -48 -109 -52 -115 -14
-17 -158 -461 -200 -616 -167 -616 -232 -1317 -180 -1929 l9 -116 -74 -409
c-41 -226 -80 -447 -87 -492 -7 -46 -15 -83 -19 -83 -4 0 -25 84 -49 188 -100
451 -136 754 -148 1260 l-6 272 -701 0 -702 0 4 108 c9 307 54 721 117 1066
19 107 35 198 35 201 0 10 25 6 188 -32 101 -23 162 -42 162 -50 0 -7 -16 -97
-35 -201 -33 -180 -91 -600 -83 -607 4 -5 1032 -124 1036 -121 1 2 16 102 32
222 62 468 135 778 299 1265 l69 207 -652 237 c-358 131 -654 239 -658 241
-15 9 145 372 293 664 92 182 264 489 320 571 l16 23 146 -95 c81 -51 147 -97
147 -101 0 -4 -24 -47 -53 -95 -147 -243 -344 -620 -330 -633 13 -12 924 -472
927 -469 2 2 48 92 103 199 110 215 201 372 305 527 l68 102 -26 78 c-50 146
-30 299 55 428 22 33 85 114 141 180 55 66 100 123 100 126 0 4 -191 168 -425
365 -234 197 -425 361 -425 365 0 13 255 282 399 421 190 184 589 529 611 528
5 -1 203 -266 208 -280 2 -4 -28 -32 -65 -61 -180 -143 -543 -471 -543 -491 0
-5 111 -127 247 -271 135 -144 250 -266 255 -272 5 -5 95 77 226 206 119 118
264 259 322 313 l105 98 -114 -89 c-63 -48 -159 -127 -215 -174 l-101 -87 -96
102 c-53 55 -108 115 -122 132 l-26 30 117 100 c64 55 169 140 232 189 223
172 200 147 200 223 l0 67 -281 377 -280 378 -137 -104 c-329 -248 -590 -474
-863 -746 -189 -189 -572 -615 -567 -631 2 -4 239 -206 528 -449 289 -243 529
-447 534 -454 6 -8 -16 -44 -67 -109 -161 -206 -373 -527 -499 -754 -28 -51
-56 -93 -62 -92 -6 0 -80 35 -164 77 l-153 77 91 159 c50 87 143 238 205 335
63 97 111 179 107 183 -26 24 -858 568 -866 565 -15 -5 -242 -363 -350 -551
-175 -305 -343 -647 -448 -911 -22 -55 -48 -118 -59 -140 -23 -48 -119 -309
-119 -323 0 -5 51 -28 113 -51 61 -23 357 -131 657 -240 458 -167 545 -202
544 -217 -1 -11 -18 -73 -39 -139 -62 -201 -141 -529 -175 -730 -18 -104 -35
-197 -39 -205 -5 -14 -24 -14 -178 4 l-173 19 0 28 c0 44 65 386 109 574 21
94 38 171 37 173 -6 6 -1010 242 -1013 238 -7 -7 -40 -141 -77 -311 -111 -511
-166 -986 -181 -1576 l-6 -246 452 -6 c249 -4 569 -7 711 -7 l258 0 0 -78 c0
-223 65 -783 119 -1023 l8 -36 -171 -41 c-94 -22 -174 -37 -177 -33 -12 11
-58 287 -90 531 -17 129 -32 236 -34 238 -5 5 -1025 -114 -1032 -121 -9 -10
40 -392 78 -610 82 -472 199 -912 361 -1364 l51 -142 26 11 c215 82 1264 458
1269 454 4 -5 -57 -525 -72 -606 -1 -8 -15 11 -31 43 -16 31 -33 57 -37 57
-20 0 -928 -461 -928 -471 0 -19 187 -373 300 -570 108 -185 276 -449 364
-569 25 -35 46 -74 46 -86 0 -21 -89 -446 -94 -452 -12 -12 -402 553 -548 793
-594 981 -976 2078 -1117 3215 -49 391 -56 513 -56 1020 0 519 8 652 61 1065
257 1993 1243 3824 2769 5141 489 421 1065 810 1610 1086 99 50 181 92 183 93
1 1 -15 49 -37 106 -21 57 -47 130 -57 162 -10 31 -20 57 -23 57 -3 0 -109
-54 -236 -119z m-3135 -8653 c30 -209 135 -706 153 -724 3 -3 231 47 506 112
276 64 503 115 505 113 3 -2 -10 -96 -28 -209 l-32 -205 -555 -203 c-305 -111
-564 -205 -575 -208 -20 -5 -25 3 -53 88 -49 150 -126 429 -171 623 -39 172
-124 644 -117 651 3 3 288 39 338 43 13 1 19 -16 29 -81z m13514 -1483 c263
-97 484 -179 491 -183 34 -19 -243 -613 -465 -997 -116 -201 -143 -245 -153
-245 -4 0 -38 20 -75 45 l-69 46 -21 118 c-12 66 -22 129 -22 141 0 12 31 77
69 144 38 66 103 190 145 274 l76 152 -203 101 -203 102 -28 216 c-15 119 -30
226 -33 239 -3 12 -1 22 4 22 5 0 224 -79 487 -175z m-12698 -912 l63 -111
-46 -256 c-26 -141 -50 -256 -54 -256 -15 0 -330 524 -341 568 -3 12 287 172
306 168 5 -1 37 -52 72 -113z"/>
<path d="M6490 16177 c-167 -89 -398 -216 -418 -232 -2 -2 629 -1098 664
-1152 14 -22 16 -21 148 80 74 56 135 105 135 110 1 4 -105 190 -234 414 -129
223 -235 409 -235 414 0 5 24 21 53 35 28 15 102 53 163 85 l112 60 -52 97
c-28 53 -62 121 -75 150 -14 28 -29 52 -35 52 -6 0 -108 -51 -226 -113z"/>
<path d="M13592 15544 c-178 -306 -322 -557 -320 -558 2 -2 63 -49 136 -105
74 -57 137 -99 141 -95 5 5 115 194 245 419 131 226 241 414 246 419 10 10
219 -122 443 -281 169 -121 434 -330 585 -463 l93 -81 -123 -130 c-67 -71
-124 -129 -126 -129 -2 0 -54 44 -115 98 -93 82 -254 212 -489 394 l-37 29
-197 -263 c-108 -145 -201 -268 -205 -273 -5 -7 40 -53 116 -120 69 -61 128
-111 132 -112 5 -1 53 59 108 133 55 75 103 138 107 140 14 9 248 -189 464
-392 l131 -123 358 378 c196 208 356 382 354 387 -8 17 -242 235 -374 350
-290 250 -620 496 -935 695 -171 109 -393 239 -407 239 -5 0 -154 -250 -331
-556z"/>
<path d="M7342 15325 c16 -51 34 -85 42 -82 21 7 16 27 -14 59 -17 18 -30 29
-28 23z"/>
<path d="M5322 12338 c-32 -46 -131 -208 -152 -249 -12 -23 -12 -23 6 -8 10 9
72 57 137 108 64 51 117 96 117 99 -1 4 -18 26 -40 50 l-38 43 -30 -43z"/>
<path d="M14899 12324 l-34 -36 35 -29 c73 -61 190 -150 190 -143 0 10 -144
244 -151 244 -3 0 -21 -16 -40 -36z"/>
</g>
</svg>
